<?xml version="1.0" encoding="utf-8"?>
<!-- Generator: Adobe Illustrator 22.0.0, SVG Export Plug-In . SVG Version: 6.00 Build 0)  -->
<svg version="1.1" id="图层_1" xmlns="http://www.w3.org/2000/svg" xmlns:xlink="http://www.w3.org/1999/xlink" x="0px" y="0px"
	 viewBox="0 0 570.3 568.3" style="enable-background:new 0 0 570.3 568.3;" xml:space="preserve">
<style type="text/css">
	.st0{clip-path:url(#SVGID_2_);fill:#3B54BD;}
	.st1{clip-path:url(#SVGID_4_);}
	.st2{clip-path:url(#SVGID_4_);fill:#003C9B;}
	.st3{clip-path:url(#SVGID_6_);fill:#AFAFAF;}
	.st4{clip-path:url(#SVGID_6_);fill:#00112D;}
	.st5{clip-path:url(#SVGID_6_);fill:#001E49;}
	.st6{clip-path:url(#SVGID_6_);}
	.st7{fill:#00112D;}
	.st8{clip-path:url(#SVGID_8_);fill:#001847;}
	.st9{clip-path:url(#SVGID_8_);fill:#000C1E;}
	.st10{clip-path:url(#SVGID_8_);fill:#FFE600;}
	.st11{clip-path:url(#SVGID_10_);fill:#001847;}
	.st12{clip-path:url(#SVGID_10_);fill:#00112D;}
	.st13{clip-path:url(#SVGID_12_);fill:#000C1E;}
	
		.st14{clip-path:url(#SVGID_12_);fill:none;stroke:#FF0000;stroke-width:4;stroke-linecap:round;stroke-linejoin:round;stroke-miterlimit:10;}
	.st15{clip-path:url(#SVGID_12_);fill:#FF0000;}
	.st16{clip-path:url(#SVGID_12_);}
</style>
<g>
	<defs>
		
			<rect id="SVGID_1_" x="-223" y="-175" transform="matrix(-1 -4.489710e-11 4.489710e-11 -1 485.2643 581.2851)" width="931.3" height="931.3"/>
	</defs>
	<clipPath id="SVGID_2_">
		<use xlink:href="#SVGID_1_"  style="overflow:visible;"/>
	</clipPath>
	<polygon class="st0" points="567.1,214.1 282.2,98.7 3.8,214.1 285.5,328.5 	"/>
	<path class="st0" d="M473.2,393.6V267l-187.8,80.9L98.8,274.6l-6.5,119C92.3,393.6,287.6,564.4,473.2,393.6z"/>
	<path class="st0" d="M37.3,339.9v-90.2h6.5v90.2c8.8,0.4,15.9,7.7,15.9,16.6v4.9c0,9.2-7.5,16.7-16.7,16.7h-4.9
		c-9.2,0-16.7-7.5-16.7-16.7v-4.9C21.3,347.7,28.4,340.4,37.3,339.9z"/>
	<path class="st0" d="M57.2,516.8c0,0,1.1,21,2.4-9.2c1.3-30.2-1.3-28.6,4-48c5.4-19.4,11.9-6.5,8.1-34.5c-3.8-28.1-3.2-21-6.7-31.5
		c-3.5-10.5,2.9-18.6-10.5-13.2s-18.3,8.1-24.3,2.2s-9.7-20-11.9,4.9s-11.9,44.8-8.6,75s2.7,46.4,8.6,50.7s10.8,7,18.9-3.2
		c8.1-10.3,11.3-34.5,12.4-18.9c1.1,15.6-0.5,17.3,0,24.3c0.5,7,5.9,8.7,5.9,8.7h4"/>
</g>
</svg>
