<?xml version="1.0" standalone="no"?><!DOCTYPE svg PUBLIC "-//W3C//DTD SVG 1.1//EN" "http://www.w3.org/Graphics/SVG/1.1/DTD/svg11.dtd"><svg t="1542787408649" class="icon" style="" viewBox="0 0 1024 1024" version="1.1" xmlns="http://www.w3.org/2000/svg" p-id="39022" xmlns:xlink="http://www.w3.org/1999/xlink" width="200" height="200"><defs><style type="text/css"></style></defs><path d="M920.371828 336.805886c-22.50148-53.201689-54.710043-100.975762-95.731318-141.998061-41.019229-41.022299-88.791256-73.229838-141.998061-95.732341-55.097876-23.302729-113.607454-35.120892-173.865863-35.120892-60.299341 0-118.80892 11.818163-173.909865 35.120892-53.202713 22.502503-100.976786 54.710043-141.999085 95.732341-41.017182 41.022299-73.228815 88.795349-95.733365 141.998061-23.302729 55.097876-35.119869 113.612571-35.119869 173.933401 0 60.299341 11.81714 118.814036 35.119869 173.911912 22.503527 53.201689 54.716182 100.979856 95.733365 141.998061 41.022299 41.022299 88.796372 73.230861 141.999085 95.732341 55.101969 23.307845 113.611547 35.120892 173.909865 35.120892 60.258409 0 118.767987-11.81407 173.869956-35.120892 53.202713-22.502503 100.975762-54.710043 141.993968-95.732341 41.021276-41.018206 73.229838-88.796372 95.731318-141.998061 23.308869-55.097876 35.126009-113.612571 35.126009-173.911912C955.49272 450.417433 943.680696 391.907854 920.371828 336.805886L920.371828 336.805886zM693.264367 699.783851c-0.008186 0.010233-0.013303 0.014326-0.022513 0.022513-12.402471 12.404518-32.516578 12.417821-44.933375 0.019443L504.888022 556.677549 361.739764 700.096982c-0.00921 0.010233-0.01842 0.019443-0.022513 0.022513-12.402471 12.405541-32.512485 12.416797-44.933375 0.022513-12.43931-12.416797-12.45773-32.543184-0.060375-44.970214l143.147234-143.42148L316.452325 368.601032c-12.42703-12.403494-12.444427-32.530904-0.040932-44.952818 0.004093-0.00921 0.01228-0.01842 0.021489-0.022513 12.386098-12.390191 32.496112-12.398378 44.915979-0.004093l143.420457 143.148257 143.152351-143.42148 0.01842-0.022513c12.404518-12.403494 32.516578-12.415774 44.950771-0.00307 12.42703 12.403494 12.444427 32.529881 0.040932 44.955888L549.780465 511.697101l143.425573 143.149281C705.625906 667.249877 705.649442 687.37524 693.264367 699.783851L693.264367 699.783851z" p-id="39023" fill="#a3b2f1"></path></svg>