<?xml version="1.0" standalone="no"?><!DOCTYPE svg PUBLIC "-//W3C//DTD SVG 1.1//EN" "http://www.w3.org/Graphics/SVG/1.1/DTD/svg11.dtd"><svg t="1542786944026" class="icon" style="" viewBox="0 0 1024 1024" version="1.1" xmlns="http://www.w3.org/2000/svg" p-id="18123" xmlns:xlink="http://www.w3.org/1999/xlink" width="200" height="200"><defs><style type="text/css"></style></defs><path d="M585.955556 227.555556L512 0H0v1024h1024V227.555556h-438.044444zM113.777778 113.777778h318.577778l39.822222 113.777778H113.777778V113.777778z m796.444444 796.444444H113.777778V341.333333h796.444444v568.888889z" p-id="18124" fill="#a4a4af"></path><path d="M460.8 523.377778c11.377778-17.066667 22.755556-28.444444 51.2-28.444445 22.755556 0 39.822222 5.688889 51.2 22.755556 11.377778 11.377778 11.377778 28.444444 11.377778 45.511111 0 11.377778-5.688889 22.755556-17.066667 39.822222l-17.066667 17.066667s-51.2 34.133333-73.955555 68.266667c-17.066667 17.066667-11.377778 11.377778-11.377778 51.2h113.777778s-5.688889-17.066667 11.377778-34.133334l28.444444-17.066666c22.755556-22.755556 45.511111-34.133333 51.2-51.2 17.066667-22.755556 22.755556-51.2 22.755556-79.644445 0-51.2-17.066667-91.022222-51.2-119.466667-34.133333-28.444444-73.955556-39.822222-125.155556-39.822222-39.822222 0-73.955556 11.377778-96.711111 28.444445C364.088889 455.111111 341.333333 500.622222 341.333333 568.888889h113.777778c0-17.066667-5.688889-28.444444 5.688889-45.511111zM455.111111 796.444444h113.777778v56.888889H455.111111z" p-id="18125" fill="#a4a4af"></path></svg>