<?xml version="1.0" standalone="no"?><!DOCTYPE svg PUBLIC "-//W3C//DTD SVG 1.1//EN" "http://www.w3.org/Graphics/SVG/1.1/DTD/svg11.dtd"><svg t="1542787128816" class="icon" style="" viewBox="0 0 1024 1024" version="1.1" xmlns="http://www.w3.org/2000/svg" p-id="21152" xmlns:xlink="http://www.w3.org/1999/xlink" width="200" height="200"><defs><style type="text/css"></style></defs><path d="M958.464 131.072c-20.48-16.384-40.96-40.96-61.44-61.44C835.584 12.288 831.488 0 819.2 0 655.36 0 73.728 0 73.728 0 20.48 0 0 20.48 0 73.728l0 872.448C0 999.424 20.48 1024 61.44 1024l114.688 0 4.096 0L180.224 479.232C180.224 434.176 217.088 409.6 245.76 409.6l606.208 0c49.152 0 65.536 36.864 65.536 73.728L917.504 1024l0 0 28.672 0c40.96 0 69.632-28.672 69.632-65.536 0 0 0-720.896 0-753.664C1024 192.512 1011.712 180.224 958.464 131.072zM356.352 245.76c0 28.672-16.384 61.44-49.152 61.44-8.192 0-32.768 0-40.96 0l-16.384 0C229.376 303.104 204.8 278.528 204.8 258.048L204.8 159.744C204.8 122.88 217.088 102.4 253.952 102.4l12.288 0c8.192 0 28.672 0 32.768 0 40.96 0 53.248 20.48 53.248 57.344L352.256 245.76zM815.104 462.848l-532.48 0c-16.384 0-49.152 16.384-49.152 57.344L233.472 1024l90.112 0 491.52 0 57.344 0L872.448 516.096C868.352 479.232 835.584 462.848 815.104 462.848z" p-id="21153" fill="#ffffff"></path></svg>