<?xml version="1.0" standalone="no"?><!DOCTYPE svg PUBLIC "-//W3C//DTD SVG 1.1//EN" "http://www.w3.org/Graphics/SVG/1.1/DTD/svg11.dtd"><svg t="1542787000763" class="icon" style="" viewBox="0 0 1024 1024" version="1.1" xmlns="http://www.w3.org/2000/svg" p-id="18930" xmlns:xlink="http://www.w3.org/1999/xlink" width="200" height="200"><defs><style type="text/css"></style></defs><path d="M629.969542 165.563067a73.778964 73.778964 0 0 0 13.250518 18.211782 27.289513 27.289513 0 0 0 19.450818 7.449576h154.372626v-16.552907a64.143155 64.143155 0 0 0-2.068474-15.313871 54.527826 54.527826 0 0 0-11.176924-19.865537 270.857373 270.857373 0 0 0-25.661358-28.559268 744.814257 744.814257 0 0 0-45.112175-41.384828c-19.041219-16.143308-31.871898-28.14455-42.219385-36.423563-10.347487-8.279014-21.519291-16.138188-29.378466-21.519291a72.657687 72.657687 0 0 0-20.700094-9.51805 82.677495 82.677495 0 0 0-17.791943 0h-2.068473v122.091129c0.13824 6.036461 1.111036 12.026842 2.89279 17.797063a77.823751 77.823751 0 0 0 7.449577 20.694974l-1.239037 2.892791z" p-id="18931" fill="#a4a4af"></path><path d="M663.500315 255.37782a91.872986 91.872986 0 0 1-50.07856-12.830679 109.25533 109.25533 0 0 1-34.35509-31.45718 140.338751 140.338751 0 0 1-19.450817-41.384827 162.46732 162.46732 0 0 1-6.21054-41.384828V0.013517H152.77683a88.975075 88.975075 0 0 0-47.595368 12.830679 168.575461 168.575461 0 0 0-39.316354 31.457179 153.614868 153.614868 0 0 0-27.315113 41.384828 115.399311 115.399311 0 0 0-9.932768 45.941613v696.138572a97.300169 97.300169 0 0 0 13.654996 49.249122 179.178947 179.178947 0 0 0 33.935252 41.384828 191.512987 191.512987 0 0 0 44.282738 29.388706 102.706871 102.706871 0 0 0 41.384827 11.171804H451.584193l203.626869-206.934378a59.581249 59.581249 0 0 1-38.492037 12.415961H224.789399a62.52012 62.52012 0 0 1-45.941613-18.621381 59.187011 59.187011 0 0 1-19.036099-42.219385 60.866365 60.866365 0 0 1 19.036099-45.526894 61.245244 61.245244 0 0 1 45.941613-19.036099h393.598741a63.707956 63.707956 0 0 1 46.76593 19.036099 61.265724 61.265724 0 0 1 19.455938 45.526894c0.03072 12.799959-4.029427 25.272239-11.591643 35.594126l144.030259-145.269295V255.37782h-153.548309z m0 237.147401a66.242348 66.242348 0 0 1-46.77105 18.211781H224.789399a63.754036 63.754036 0 0 1-45.941613-18.211781 60.001088 60.001088 0 0 1-19.036099-45.112176 61.670203 61.670203 0 0 1 19.036099-45.526894 62.515 62.515 0 0 1 45.941613-18.621381h393.598741a64.987952 64.987952 0 0 1 46.76593 18.621381 61.265724 61.265724 0 0 1 19.455938 45.526894 60.446527 60.446527 0 0 1-19.455938 45.112176h-1.653755zM993.35526 691.600424a87.039721 87.039721 0 0 0-4.136947-20.694974 87.3674 87.3674 0 0 0-18.63162-26.905514 73.681684 73.681684 0 0 0-22.348729-17.791943 56.652619 56.652619 0 0 0-24.417202-6.625259 33.121174 33.121174 0 0 0-26.905514 9.51805l-13.240277 11.176924a170.418655 170.418655 0 0 1-14.069715 12.41596l88.980195 86.082285a49.126243 49.126243 0 0 0 7.449576-6.21054l7.449576-7.859175 9.51805-9.51805a30.213023 30.213023 0 0 0 10.352607-23.587764z m-261.155005 94.781136l-37.657479 37.242761-34.769809 34.35509-26.070956 25.661358-13.660117 13.240278a77.890311 77.890311 0 0 0-16.967625 23.178166 160.613886 160.613886 0 0 0-5.790702 15.723469l-7.869415 24.002483-7.449576 24.831921c-2.063353 8.279014-3.307509 14.489554-4.136947 18.216902a21.91865 21.91865 0 0 0 2.068474 17.382344c2.892791 3.312629 8.273894 4.556785 16.962505 3.31263a191.128988 191.128988 0 0 0 18.631621-4.556786 228.479269 228.479269 0 0 0 26.485675-7.034857c9.103331-2.483192 17.797063-5.795821 26.905514-8.688613l21.92889-9.932768 12.42108-7.449576 11.591643-8.693732 11.171804-11.171804 24.422322-24.422322 34.764689-33.940372 37.662599-36.828042 101.810875-98.918083-88.150758-86.082285-104.304307 100.571838z" p-id="18932" fill="#a4a4af"></path></svg>