<?xml version="1.0" standalone="no"?><!DOCTYPE svg PUBLIC "-//W3C//DTD SVG 1.1//EN" "http://www.w3.org/Graphics/SVG/1.1/DTD/svg11.dtd"><svg t="1542789561767" class="icon" style="" viewBox="0 0 1024 1024" version="1.1" xmlns="http://www.w3.org/2000/svg" p-id="43697" xmlns:xlink="http://www.w3.org/1999/xlink" width="200" height="200"><defs><style type="text/css"></style></defs><path d="M795 982S566 858 566 689c0-64.6 64.2-117.2 128-117.2 48.4 0 85.6 30.2 100.6 73.2l0.2 0.2s0.2 0 0.2-0.2c15.2-42.8 52.2-73.2 100.6-73.2 63.8 0 128 52.4 128 117.2C1024 858 795 982 795 982z" p-id="43698" fill="#a4a4af"></path><path d="M508.6 667c0-27.6 9.4-53.4 25-75.6-20.6 6-42 9-64 9-31.4 0-61.8-6.2-90.4-18.2-27.6-11.6-52.6-28.6-74-50s-38.2-46.4-49.8-74c-12-28.6-18.2-59-18.2-90.6 0-31.4 6.2-62 18.2-90.6 11.6-27.6 28.6-52.6 49.8-74 21.4-21.4 46.2-38.2 74-50 28.6-12 59-18.2 90.4-18.2 31.4 0 61.8 6.2 90.4 18.2 27.6 11.6 52.6 28.6 74 50s38.2 46.4 49.8 74c12 28.6 18.2 59 18.2 90.6 0 31.4-6.2 62-18.2 90.6-10 23.8-23.8 45.4-41 64.6 8.6-1.4 17.2-2.4 26-2.4 28.2 0 53.4 8.4 74.2 22.6 27.8-43 52-101.6 52-175.4 0-185-139.2-325-324-325.8-87.2-0.4-169.2 33.2-231 94.8-61.8 61.6-96 143.6-96 231 0 72 23.6 141.4 66.8 197.8C80.2 652.2 0 800.2 0 958v24h102.2v-23.4c0-49.8 9.6-98.2 28.8-143.6 18.6-44 45.2-83.2 78.8-116.8 23.4-23.4 49.8-43.6 78.4-59.8 53.6 36.2 116 55.2 181.4 55.2 13.6 0 27.2-0.8 40.4-2.2-0.8-8.2-1.4-16.2-1.4-24.4z" p-id="43699" fill="#a4a4af"></path></svg>