<?xml version="1.0" standalone="no"?><!DOCTYPE svg PUBLIC "-//W3C//DTD SVG 1.1//EN" "http://www.w3.org/Graphics/SVG/1.1/DTD/svg11.dtd"><svg t="1542785949118" class="icon" style="" viewBox="0 0 1024 1024" version="1.1" xmlns="http://www.w3.org/2000/svg" p-id="5522" xmlns:xlink="http://www.w3.org/1999/xlink" width="200" height="200"><defs><style type="text/css"></style></defs><path d="M758.291 277.994a11.889 11.889 0 0 1-7.728 2.378 13.672 13.672 0 0 1-11.69-6.54 15.257 15.257 0 0 1 4.161-19.813 78.068 78.068 0 0 0 25.957-67.17 165.053 165.053 0 0 0-21.796-65.982 15.059 15.059 0 0 1 4.161-19.814 13.276 13.276 0 0 1 10.502-1.982 12.88 12.88 0 0 1 8.718 6.143 194.576 194.576 0 0 1 26.353 79.257 107.393 107.393 0 0 1-38.638 94.117m-246.49-149.201C427.196-75.889 186.255-27.938 184.67 210.427c-0.991 130.774 114.526 179.914 191.603 232.025s127.604 120.074 135.926 149.796c7.133-28.93 66.18-100.26 135.331-150.985 75.69-55.678 192.595-101.449 191.604-232.223-1.585-239.158-246.489-277.4-327.331-79.257m409.164 609.09C880.149 761.858 757.3 860.136 713.115 865.486s-161.883-2.972-245.895-10.303c-95.307-8.322-58.254-44.384-43.195-48.347s198.142-13.077 257.585-19.814c54.687-5.945 46.96-56.67-14.86-59.443s-341.796-19.814-435.914-13.672S0 838.54 0 838.54l5.152 18.625L205.672 1024l26.75-1.981a386.378 386.378 0 0 1 90.154-34.477c40.817-7.926 266.898 15.257 344.966 4.755s278.984-168.223 323.17-202.7c21.4-16.643 36.855-40.619 32.297-47.157-21.4-30.712-75.492-18.428-102.043-3.567" p-id="5523" fill="#a4a4af"></path></svg>