<?xml version="1.0" standalone="no"?><!DOCTYPE svg PUBLIC "-//W3C//DTD SVG 1.1//EN" "http://www.w3.org/Graphics/SVG/1.1/DTD/svg11.dtd"><svg t="1542787053118" class="icon" style="" viewBox="0 0 1024 1024" version="1.1" xmlns="http://www.w3.org/2000/svg" p-id="19731" xmlns:xlink="http://www.w3.org/1999/xlink" width="200" height="200"><defs><style type="text/css"></style></defs><path d="M943.92322 871.603101 753.124709 680.80459c-0.082888-0.082888-0.174985-0.152473-0.25992-0.232291 49.336662-64.567551 78.645175-145.254222 78.645175-232.787834 0-211.94718-171.817204-383.76336-383.76336-383.76336S63.981197 235.837286 63.981197 447.784466s171.817204 383.76336 383.76336 383.76336c87.533612 0 168.220283-29.308513 232.787834-78.645175 0.079818 0.084934 0.148379 0.177032 0.232291 0.25992L871.564215 943.962106c9.991562 9.990538 23.085788 14.986319 36.178991 14.986319s26.188452-4.995781 36.178991-14.986319C963.904297 923.981029 963.904297 891.585201 943.92322 871.603101zM447.74558 780.38354c-44.923142 0-88.475054-8.78713-129.447211-26.116821-39.599903-16.749476-75.17412-40.73782-105.736183-71.299883-30.562063-30.562063-54.550407-66.13628-71.299883-105.736183-17.32969-40.971134-26.116821-84.524069-26.116821-129.446187 0-44.923142 8.78713-88.475054 26.116821-129.446187 16.749476-39.599903 40.73782-75.17412 71.299883-105.736183 30.562063-30.562063 66.13628-54.550407 105.736183-71.299883 40.971134-17.32969 84.524069-26.116821 129.447211-26.116821 44.923142 0 88.475054 8.78713 129.446187 26.116821 39.599903 16.749476 75.17412 40.73782 105.736183 71.299883s54.550407 66.13628 71.299883 105.736183c17.32969 40.971134 26.115797 84.523045 26.115797 129.446187 0 44.923142-8.78713 88.475054-26.115797 129.446187-16.749476 39.599903-40.73782 75.17412-71.299883 105.736183s-66.13628 54.550407-105.736183 71.299883C536.220634 771.59641 492.668723 780.38354 447.74558 780.38354z" p-id="19732" fill="#999999"></path></svg>