<?xml version="1.0" standalone="no"?><!DOCTYPE svg PUBLIC "-//W3C//DTD SVG 1.1//EN" "http://www.w3.org/Graphics/SVG/1.1/DTD/svg11.dtd"><svg t="1542786890036" class="icon" style="" viewBox="0 0 1024 1024" version="1.1" xmlns="http://www.w3.org/2000/svg" p-id="16470" xmlns:xlink="http://www.w3.org/1999/xlink" width="200" height="200"><defs><style type="text/css"></style></defs><path d="M511.9 713.8c-72.2 0-138.9-38.6-175-101.1-36.1-62.6-36.1-139.7 0-202.3 36.1-62.6 102.8-101.1 175-101.1 111.6 0 202.1 90.6 202.1 202.3s-90.5 202.2-202.1 202.2zM915 415.5h-78.8c-7.4-16-17.9-49.3-31.4-73.1l55.6-54.1c8.4-8.3 13.2-19.6 13.2-31.4s-4.7-23.1-13.2-31.4L797 162.3c-17.6-17.5-46-17.4-63.5 0.2L681 218.3c-23.7-13.5-57-23.9-73-31.4v-78.8c0-24.8-26.3-45-51.1-45h-89.8C442.3 63 416 83.2 416 108v79c-16 7.4-49.3 17.9-73 31.4l-54.1-55.7c-8.3-8.4-19.6-13.2-31.4-13.2s-23.1 4.7-31.4 13.2L163 226.2c-8.4 8.5-13.1 19.9-13.1 31.9 0 11.9 4.8 23.4 13.3 31.8l55.7 52.6c-13.4 23.7-23.9 57-31.4 73h-78.7C84 415.5 64 441.8 64 466.6v89.9c0 24.8 20 51.1 44.9 51.1h78.8c7.4 16 17.9 49.3 31.4 73l-55.6 54.1c-8.4 8.3-13.2 19.6-13.2 31.4s4.7 23.1 13.2 31.4l63.4 63.2c17.5 17.5 46 17.4 63.6-0.2l52.5-55.8c23.7 13.5 57 23.9 73 31.4V915c0 24.8 26.3 45 51.1 45h89.8c24.8 0 51.1-20.1 51.1-45v-78.8c16-7.5 49.3-18 73-31.4l54.1 55.7c8.3 8.4 19.6 13.2 31.4 13.2 11.8 0 23.1-4.7 31.4-13.2L861 797c8.4-8.5 13.1-19.9 13.1-31.9 0-11.9-4.8-23.4-13.3-31.8l-55.7-52.6c13.4-23.7 23.9-57 31.4-73H915c24.9 0 45-26.3 45-51.1v-89.9c0-24.9-20.2-51.2-45-51.2z" fill="#a4a4af" p-id="16471"></path></svg>