<?xml version="1.0" standalone="no"?><!DOCTYPE svg PUBLIC "-//W3C//DTD SVG 1.1//EN" "http://www.w3.org/Graphics/SVG/1.1/DTD/svg11.dtd"><svg t="1542785908773" class="icon" style="" viewBox="0 0 1024 1024" version="1.1" xmlns="http://www.w3.org/2000/svg" p-id="4716" xmlns:xlink="http://www.w3.org/1999/xlink" width="200" height="200"><defs><style type="text/css"></style></defs><path d="M879.766015 695.221952l-52.433186 0L827.332828 432.908664c0-156.217924-113.927749-285.548478-263.243473-310.197878 0.145309-1.566682 0.857531-2.983961 0.857531-4.583388 0-28.979008-23.460318-52.473095-52.433186-52.473095-28.979008 0-52.472072 23.494087-52.472072 52.473095 0 1.599428 0.784876 3.016707 0.934279 4.583388C311.730791 147.326417 197.727317 276.651854 197.727317 432.908664l0 262.313288-52.467979 0c-28.977985 0-52.472072 23.456225-52.472072 52.473095 0 28.972868 23.494087 52.433186 52.472072 52.433186l734.469837 0c28.979008 0 52.433186-23.460318 52.433186-52.433186C932.200224 718.677153 908.74093 695.221952 879.766015 695.221952L879.766015 695.221952zM512.512676 957.535239c57.985646 0 104.940051-46.988174 104.940051-104.901165L407.606395 852.634074C407.606395 910.547065 454.5608 957.535239 512.512676 957.535239L512.512676 957.535239zM512.512676 957.535239" p-id="4717" fill="#a4a4af"></path></svg>